Coordinates
version=1
nRows=29
nColumns=24
inDegrees=yes

Units are S.I. units (second, meters, Newtons, ...)
Angles are in degrees.

endheader
time	pelvis_tilt	pelvis_list	pelvis_rotation	pelvis_tx	pelvis_ty	pelvis_tz	hip_flexion_r	hip_adduction_r	hip_rotation_r	knee_angle_r	ankle_angle_r	subtalar_angle_r	mtp_angle_r	hip_flexion_l	hip_adduction_l	hip_rotation_l	knee_angle_l	ankle_angle_l	subtalar_angle_l	mtp_angle_l	lumbar_extension	lumbar_bending	lumbar_rotation
      1.82500000	     -9.27417862	      4.01783447	    354.20971797	     -0.65516241	      1.36815118	     -0.99249168	      2.80679008	     -1.18501091	      4.07989889	    -16.43501889	     11.44395403	     -0.00946523	      7.87530747	     25.00544410	      3.84559717	    -11.71197570	      6.09386668	     -9.43879146	      7.07817257	     33.35763029	     -6.11743225	      2.42666725	     16.74019217
      1.83000000	     -9.16945796	      4.11826466	    354.22422104	     -0.64968379	      1.36776049	     -0.99286176	      2.36690112	     -1.36142348	      4.07770397	    -16.44454476	     11.46838001	     -0.01003279	      7.96420736	     25.00082086	      3.99283159	    -11.38451290	      5.39181986	     -9.70289235	      5.96307870	     33.18055500	     -6.16418429	      2.27242574	     16.65488489
      1.83500000	     -9.07547029	      4.22783858	    354.24677387	     -0.64418367	      1.36738717	     -0.99322544	      1.94415072	     -1.54237594	      4.08836900	    -16.46885079	     11.46857997	     -0.04567182	      8.07060289	     25.00265228	      4.15291856	    -11.04278563	      4.69732559	    -10.04866331	      4.79806681	     33.03802916	     -6.19640932	      2.10480286	     16.54730593
      1.84000000	     -8.97384129	      4.34347539	    354.27177266	     -0.63866846	      1.36706319	     -0.99359742	      1.52267967	     -1.72966753	      4.09255041	    -16.50743904	     11.43292965	     -0.11416240	      8.19805277	     24.98412653	      4.32619007	    -10.71346647	      4.02814678	    -10.47767019	      3.63557050	     32.88621890	     -6.24165576	      1.93287232	     16.42352449
      1.84500000	     -8.91652997	      4.45833110	    354.32059994	     -0.63315268	      1.36672479	     -0.99399706	      1.16450288	     -1.90978689	      4.09186027	    -16.58200252	     11.36456894	     -0.18251858	      8.33941827	     25.01072274	      4.50260983	    -10.33193359	      3.37023782	    -10.95361502	      2.47658471	     32.74996840	     -6.23964105	      1.76153125	     16.28589735
      1.85000000	     -8.83986540	      4.57589248	    354.39109280	     -0.62762627	      1.36644418	     -0.99441307	      0.79349792	     -2.09428568	      4.07068686	    -16.67493934	     11.26824382	     -0.25059458	      8.53039555	     25.00302562	      4.69436431	     -9.91521500	      2.74315890	    -11.43752205	      1.36068448	     32.68445035	     -6.26259700	      1.57706206	     16.12503641
      1.85500000	     -8.79480847	      4.69661009	    354.46701615	     -0.62210305	      1.36619122	     -0.99484668	      0.48333650	     -2.27760667	      4.04714084	    -16.81549015	     11.12482835	     -0.34017184	      8.74256039	     25.02058737	      4.89089158	     -9.51934442	      2.13976420	    -11.96847896	      0.30230774	     32.61100243	     -6.25309791	      1.39130049	     15.96764237
      1.86000000	     -8.73423652	      4.82137994	    354.54648564	     -0.61658937	      1.36600153	     -0.99529461	      0.17892060	     -2.46653881	      4.01705497	    -16.99741258	     10.95518198	     -0.42139067	      8.96456648	     25.00881753	      5.09707513	     -9.13840503	      1.56231956	    -12.49445645	     -0.67296475	     32.54109880	     -6.26835240	      1.20248878	     15.80303596
      1.86500000	     -8.70671515	      4.93714355	    354.63758204	     -0.61109961	      1.36584094	     -0.99578197	     -0.05570292	     -2.64335501	      3.97302500	    -17.24133310	     10.73862053	     -0.49467296	      9.21942797	     25.02937151	      5.29689313	     -8.75997263	      0.99147493	    -13.02211229	     -1.59831629	     32.47694498	     -6.25996855	      1.03308497	     15.62079351
      1.87000000	     -8.67047097	      5.05707408	    354.73712726	     -0.60561467	      1.36575029	     -0.99628359	     -0.26854631	     -2.82655009	      3.91766948	    -17.53901058	     10.47535180	     -0.55291533	      9.54327535	     25.03091493	      5.50492471	     -8.37194799	      0.43320112	    -13.50953753	     -2.44638611	     32.42429133	     -6.26431447	      0.84930851	     15.44337794
      1.87500000	     -8.66617953	      5.17908075	    354.84403842	     -0.60013159	      1.36568947	     -0.99681981	     -0.40702599	     -3.01150606	      3.85228419	    -17.91053768	     10.17175789	     -0.59245670	      9.89116182	     25.06319002	      5.71529366	     -7.98385867	     -0.12541388	    -13.96218404	     -3.23648913	     32.34411150	     -6.23679059	      0.67315911	     15.25822966
      1.88000000	     -8.63604300	      5.30325950	    354.96046078	     -0.59464796	      1.36571310	     -0.99738765	     -0.53633455	     -3.20494777	      3.76711121	    -18.34822008	      9.82031560	     -0.60141673	     10.28346336	     25.05535090	      5.93610989	     -7.57922022	     -0.67296926	    -14.35352681	     -3.94630944	     32.23724781	     -6.24114949	      0.48744629	     15.07587428
      1.88500000	     -8.66729283	      5.40257055	    355.08249136	     -0.58923190	      1.36574584	     -0.99799950	     -0.54373939	     -3.36831912	      3.67545632	    -18.86973478	      9.36360775	     -0.66508132	     11.04006291	     25.14298714	      6.12589427	     -7.20471755	     -1.28723016	    -14.64334246	     -4.61529139	     32.15281441	     -6.19340934	      0.34202613	     14.92161023
      1.89000000	     -8.61370720	      5.53112806	    355.19854945	     -0.58376742	      1.36592587	     -0.99862368	     -0.60477191	     -3.57959827	      3.55110073	    -19.46746638	      8.94765891	     -0.57467766	     11.42419557	     25.10602616	      6.35918694	     -6.81516036	     -1.85346072	    -14.89515346	     -5.26536248	     31.90500279	     -6.23847651	      0.15884968	     14.73954972
      1.89500000	     -8.64026288	      5.62392828	    355.30867382	     -0.57837582	      1.36609737	     -0.99929648	     -0.51423327	     -3.74794414	      3.45900839	    -20.15808193	      8.37505339	     -0.55514074	     12.23948878	     25.18690141	      6.54522404	     -6.44197435	     -2.49338314	    -15.03471190	     -5.89393983	     31.59095094	     -6.21064048	      0.04374418	     14.56621517
      1.90000000	     -8.60765455	      5.72215468	    355.44667256	     -0.57298355	      1.36637149	     -1.00003037	     -0.44786402	     -3.93860263	      3.29202816	    -20.92756172	      7.83994797	     -0.40091185	     12.89134123	     25.19984021	      6.76094571	     -6.02231864	     -3.13905013	    -15.11559615	     -6.48840013	     31.22767082	     -6.24802781	     -0.10357969	     14.43290428
      1.90500000	     -8.59246966	      5.82810367	    355.56083185	     -0.56756116	      1.36669637	     -1.00075203	     -0.30060822	     -4.13972969	      3.15465264	    -21.78561100	      7.17078353	     -0.32036834	     13.78319899	     25.21687642	      6.97712081	     -5.61844190	     -3.77284913	    -15.09540447	     -7.04809184	     30.75696999	     -6.25774509	     -0.24108350	     14.27697186
      1.91000000	     -8.56636304	      5.91040442	    355.66375380	     -0.56222561	      1.36708508	     -1.00149764	     -0.10041878	     -4.31936471	      3.03672956	    -22.73828642	      6.44755210	     -0.24418263	     14.79048106	     25.23477057	      7.16935907	     -5.21835453	     -4.44163334	    -14.96692190	     -7.52703815	     30.22146793	     -6.30265810	     -0.34944138	     14.16316201
      1.91500000	     -8.51873177	      6.01362313	    355.78016143	     -0.55680736	      1.36753824	     -1.00229375	      0.11610495	     -4.54097765	      2.85679068	    -23.75667005	      5.69118372	     -0.01379682	     15.69327366	     25.20501982	      7.40273689	     -4.79008910	     -5.07690554	    -14.83433249	     -8.06120160	     29.66128523	     -6.34474972	     -0.48651429	     14.05684162
      1.92000000	     -8.47835470	      6.09720214	    355.88416011	     -0.55145177	      1.36802437	     -1.00310472	      0.40426077	     -4.74127154	      2.71550094	    -24.86145405	      4.84783308	      0.14853858	     16.74883396	     25.18322600	      7.61638992	     -4.35689567	     -5.72255973	    -14.61119316	     -8.54413035	     29.01776884	     -6.39084628	     -0.59317527	     13.97153651
      1.92500000	     -8.40536224	      6.17728152	    355.97712085	     -0.54611997	      1.36857243	     -1.00392439	      0.71195197	     -4.94701277	      2.57707827	    -26.03666899	      3.94470181	      0.33062389	     17.84852452	     25.10798550	      7.83321333	     -3.93535161	     -6.33976951	    -14.35200253	     -8.99938885	     28.35685771	     -6.47707082	     -0.69481574	     13.90188784
      1.93000000	     -8.33212870	      6.24808964	    356.03587371	     -0.54084751	      1.36915077	     -1.00469196	      1.08299654	     -5.13390532	      2.51990417	    -27.28179782	      2.93416246	      0.38958620	     19.09599837	     25.01932460	      8.02780855	     -3.57428900	     -6.93504715	    -14.01559031	     -9.34710555	     27.65464137	     -6.57612383	     -0.76996515	     13.80849608
      1.93500000	     -8.26778294	      6.34082412	    356.11844538	     -0.53551350	      1.36972648	     -1.00553650	      1.50390834	     -5.36330028	      2.40006081	    -28.58985322	      1.95700200	      0.64285003	     20.12073203	     24.90395908	      8.26797005	     -3.15053083	     -7.46455790	    -13.73692898	     -9.82267676	     26.99998515	     -6.63308270	     -0.88797299	     13.78891102
      1.94000000	     -8.19224474	      6.41251238	    356.17653902	     -0.53026927	      1.37033144	     -1.00634265	      1.96953231	     -5.56028716	      2.34683609	    -29.94831571	      0.88124844	      0.76744653	     21.26617216	     24.76011935	      8.47929618	     -2.77574921	     -7.96393899	    -13.40533551	    -10.21577980	     26.29514572	     -6.72094732	     -0.97253235	     13.75138579
      1.94500000	     -8.07092334	      6.50091270	    356.21414178	     -0.52503201	      1.37097946	     -1.00710985	      2.42558447	     -5.77625831	      2.32640464	    -31.33845032	     -0.21415707	      0.90094316	     22.37482018	     24.52516542	      8.70562902	     -2.45136663	     -8.38052191	    -13.06587483	    -10.55183186	     25.62748575	     -6.85221520	     -1.07757147	     13.71426331
      1.95000000	     -8.00081284	      6.58073585	    356.24226064	     -0.51985315	      1.37157082	     -1.00785542	      2.98992782	     -5.96947307	      2.35308594	    -32.78244202	     -1.31425834	      1.01565950	     23.35858734	     24.32592445	      8.91358138	     -2.15730832	     -8.75343352	    -12.72767649	    -10.86388004	     25.02933597	     -6.92814669	     -1.17112326	     13.68800466
      1.95500000	     -7.91207528	      6.66315691	    356.26137583	     -0.51470613	      1.37216532	     -1.00859037	      3.56923601	     -6.16116253	      2.40826517	    -34.24705661	     -2.39502421	      1.14507101	     24.26926637	     24.07136172	      9.12337224	     -1.89887644	     -9.05461050	    -12.39853862	    -11.14466795	     24.46945065	     -7.02393115	     -1.26534477	     13.66222481
      1.96000000	     -7.84178942	      6.74348833	    356.27141409	     -0.50959780	      1.37273600	     -1.00929685	      4.20374408	     -6.33825933	      2.49758340	    -35.73075226	     -3.43575558	      1.26725482	     25.04864549	     23.80897645	      9.32198681	     -1.68731161	     -9.29657720	    -12.06977046	    -11.37009917	     23.97527998	     -7.09631449	     -1.35806844	     13.64311155
      1.96500000	     -7.76343786	      6.81997775	    356.27353211	     -0.50453550	      1.37329641	     -1.00997125	      4.85758453	     -6.49878516	      2.61991173	    -37.22108267	     -4.40720102	      1.40958037	     25.70394859	     23.50794071	      9.51036136	     -1.51611571	     -9.47452463	    -11.75120054	    -11.55169056	     23.55381193	     -7.17738934	     -1.44716652	     13.61823843
